<?xml version="1.0" encoding="utf-8"?>
<!-- Uploaded to: SVG Repo, www.svgrepo.com, Generator: SVG Repo Mixer Tools -->
<svg fill="#000000" width="800px" height="800px" viewBox="0 0 32 32" version="1.1" xmlns="http://www.w3.org/2000/svg">
<title>aperture</title>
<path d="M16 0.75c-8.422 0-15.25 6.828-15.25 15.25s6.828 15.25 15.25 15.25c8.422 0 15.25-6.828 15.25-15.25v0c-0.010-8.418-6.832-15.24-15.249-15.25h-0.001zM27.101 9.75h-11.823l3.562-6.17c3.567 0.841 6.496 3.087 8.228 6.108l0.033 0.062zM20.331 15.999l-2.166 3.751h-4.33l-2.165-3.75 2.165-3.75h4.345zM16 3.25c0.047 0 0.093 0.007 0.14 0.007l-5.913 10.242-3.557-6.16c2.327-2.516 5.645-4.087 9.33-4.089h0zM5.040 9.518l5.907 10.232h-7.133c-0.358-1.118-0.565-2.405-0.565-3.74 0-2.397 0.666-4.638 1.822-6.549l-0.032 0.057zM4.899 22.25h11.823l-3.563 6.17c-3.566-0.841-6.496-3.087-8.227-6.107l-0.033-0.062zM16 28.75c-0.047 0-0.093-0.007-0.14-0.007l5.91-10.238 3.544 6.174c-2.326 2.506-5.637 4.069-9.314 4.071h-0zM26.948 22.502l-5.886-10.252h7.124c0.358 1.118 0.564 2.405 0.564 3.74 0 2.405-0.67 4.654-1.834 6.569l0.032-0.056z"></path>
</svg>